<?xml version="1.0" encoding="UTF-8"?> <svg xmlns="http://www.w3.org/2000/svg" width="94" height="32" viewBox="0 0 94 32" fill="none"><path d="M92.1906 7.49942C91.3987 7.50852 90.7617 8.14561 90.7526 8.93742V19.6405H90.6251L82.7344 8.22752C82.1974 7.46302 81.1507 7.28099 80.3862 7.80886C79.9312 8.12741 79.6672 8.64618 79.6672 9.20136V23.2264C79.6672 24.0182 80.3134 24.6644 81.1052 24.6644C81.897 24.6644 82.5432 24.0182 82.5432 23.2264V12.5233H82.6706L90.5614 23.8726C90.88 24.3185 91.3805 24.5825 91.9266 24.5916C92.8549 24.5734 93.6012 23.8271 93.6194 22.8987V8.93742C93.5648 8.15471 92.9733 7.49942 92.1906 7.49942Z" fill="#00c4b6"></path><path d="M59.9721 21.7884H52.3362V17.2833H58.6616C59.4534 17.2833 60.0996 16.6371 60.0996 15.8453C60.0996 15.0535 59.4534 14.4073 58.6616 14.4073H52.3362V10.2935H59.8993C60.6911 10.2935 61.3373 9.64732 61.3373 8.85551C61.3373 8.0637 60.6911 7.41751 59.8993 7.41751H50.8982C50.1064 7.42661 49.4693 8.0637 49.4602 8.85551V23.2082C49.4693 24 50.1064 24.6371 50.8982 24.6462H59.9631C60.7549 24.628 61.3828 23.9636 61.3646 23.1718C61.3464 22.4164 60.7276 21.8066 59.9721 21.7884Z" fill="#00c4b6"></path><path d="M45.5557 16.5643C45.0551 16.1729 44.5091 15.8453 43.9266 15.5813C43.3441 15.3174 42.7252 15.1172 42.0972 14.9989L40.4681 14.6075C40.1132 14.5256 39.7673 14.4164 39.4215 14.289C39.0756 14.1798 38.748 14.0341 38.4385 13.8521C38.1564 13.6792 37.9106 13.4517 37.7286 13.1786C37.5284 12.9147 37.4647 12.5961 37.4647 12.1957C37.4556 11.7679 37.5921 11.3584 37.856 11.0216C38.12 10.694 38.5113 10.4391 38.9664 10.2389C39.5034 10.0205 40.0767 9.91127 40.6592 9.91127C41.5694 9.91127 42.3521 10.1024 42.9436 10.4937C43.2622 10.7122 43.5352 11.0034 43.7264 11.3402C43.9903 11.8589 44.4453 12.2503 45.0278 12.2503H45.1552C45.9289 12.2412 46.5477 11.6132 46.5386 10.8487V10.8396C46.5386 10.6212 46.484 10.4118 46.393 10.2207C46.2656 10.0296 46.1928 9.82936 46.0654 9.70194C45.5375 8.91013 44.7912 8.30035 43.9084 7.9363C42.9983 7.48123 41.8879 7.28101 40.7138 7.28101C39.6126 7.28101 38.5295 7.50854 37.5193 7.9363C36.6092 8.32765 35.8265 8.91923 35.2986 9.70194C34.7798 10.4209 34.5159 11.3311 34.5159 12.314C34.5159 13.4881 34.7798 14.7258 35.5625 15.4448C36.3452 16.1638 37.4556 16.6826 38.8845 17.074L40.8413 17.5927C41.3964 17.711 41.9425 17.884 42.4704 18.1115C42.9254 18.3117 43.3168 18.5028 43.5807 18.8305C43.8447 19.0944 43.9721 19.4858 43.9721 19.9408C43.9903 20.4141 43.8265 20.8783 43.517 21.2423C43.1712 21.6155 42.7525 21.9067 42.2793 22.0887C41.6968 22.3072 41.0779 22.4164 40.4499 22.4164C39.8219 22.4164 39.2121 22.3527 38.6934 22.1524C38.1928 21.9704 37.7377 21.6519 37.3919 21.2423C37.2554 21.0603 37.1461 20.8601 37.0642 20.6507C36.8549 20.1138 36.3452 19.7497 35.7628 19.7406H35.6353C34.6524 19.7406 33.9425 20.7873 34.3339 21.6974C34.4704 22.025 34.6433 22.3254 34.8526 22.6075C35.3714 23.3902 36.1541 23.9727 37.137 24.3732C38.12 24.7736 39.294 24.9647 40.5955 24.9647C41.9607 24.9647 43.1439 24.7736 44.1177 24.3094C45.0915 23.909 45.8196 23.3265 46.3384 22.5438C46.8572 21.8248 47.1211 20.9147 47.1211 19.9317C47.1211 19.2492 46.9664 18.5848 46.6661 17.975C46.4021 17.4289 46.0199 16.9465 45.5557 16.5643Z" fill="#00c4b6"></path><path d="M73.7969 8.28213C72.6865 7.62684 71.3213 7.29919 69.8196 7.29919C68.3179 7.29919 67.0164 7.62684 65.8424 8.34584C64.6683 9.06484 63.7582 10.0387 63.0392 11.3493C62.3839 12.6507 61.9926 14.2161 61.9926 16.1092C61.9926 18.0023 62.3202 19.504 63.0392 20.8055C63.6945 22.1069 64.6683 23.1536 65.8424 23.8089C67.0164 24.5279 68.3179 24.8555 69.8196 24.8555C71.3213 24.8555 72.6228 24.5279 73.7969 23.8089C74.9709 23.0899 75.8811 22.116 76.6001 20.8055C77.2554 19.504 77.6467 17.9386 77.6467 16.0455C77.6467 14.1524 77.3191 12.6507 76.6001 11.2855C75.9903 10.0205 75.0164 8.97382 73.7969 8.28213ZM74.1882 19.504C73.7332 20.3504 73.1416 21.0057 72.4317 21.397C71.7127 21.8521 70.8663 22.0523 69.8196 22.0523C68.8367 22.0523 67.9903 21.8612 67.2076 21.397C66.4613 20.9329 65.8515 20.2776 65.4419 19.504C64.9869 18.5938 64.7866 17.4198 64.7866 16.0455C64.7866 14.6712 64.9869 13.4971 65.4419 12.587C65.897 11.7406 66.4249 11.0853 67.1985 10.694C67.9812 10.2389 68.8276 10.0387 69.8105 10.0387C70.7935 10.0387 71.6399 10.2298 72.4226 10.694C73.1689 11.1581 73.7787 11.8134 74.1791 12.587C74.6342 13.4971 74.8344 14.6712 74.8344 16.0455C74.8344 17.4198 74.6524 18.5938 74.1882 19.504Z" fill="#00c4b6"></path><path d="M22.9118 12.1866C22.6297 11.9226 22.2566 11.7861 21.8652 11.7952C21.4101 11.7952 21.0188 11.9226 20.7548 12.2503C20.1724 12.9056 20.1724 13.8703 20.8186 14.4619C21.665 15.3083 22.3749 17.1923 22.3749 18.7486C22.3658 24.355 17.8242 28.8874 12.2179 28.8783C8.25883 28.8783 4.66383 26.5666 3.00741 22.9716C2.61605 22.1889 1.71503 21.8066 0.932319 22.1889C0.149612 22.5802 -0.232641 23.4812 0.149611 24.2639C2.32481 28.9693 7.03926 31.9909 12.2361 32C19.5171 32 25.4875 26.0296 25.4875 18.7486C25.5057 16.2821 24.4044 13.5518 22.9118 12.1866Z" fill="#00c4b6"></path><path d="M6.47495 23.4903C8.23149 25.1741 10.0426 25.9568 12.2542 25.9568C14.1837 25.9568 16.0313 25.1923 17.3873 23.818C18.7525 22.4528 19.4624 20.6325 19.4624 18.6849C19.4624 16.7372 18.4795 13.8794 14.0017 11.7315L13.9653 11.7224C13.7741 11.6405 13.5739 11.6041 13.3646 11.6041H13.3464C13.31 11.6041 13.2645 11.6041 13.2281 11.6132C13.2008 11.6132 13.1735 11.6223 13.1462 11.6223H13.1189C12.2815 11.7497 11.6991 12.5415 11.8265 13.3788V13.3879C11.8993 13.843 12.1723 14.2344 12.5637 14.4801C12.6274 14.5256 12.6911 14.562 12.7548 14.5893C15.1575 15.7543 16.3862 17.1286 16.3862 18.7486C16.3498 21.033 14.5114 22.8805 12.2269 22.9079C10.8617 22.9079 9.82421 22.3891 8.65925 21.2878C8.04946 20.678 7.05743 20.678 6.44764 21.2878C5.84696 21.8885 5.83786 22.8623 6.43854 23.463C6.45674 23.4721 6.46584 23.4812 6.47495 23.4903Z" fill="#00c4b6"></path><path d="M2.607 19.8134C2.88914 20.0774 3.26229 20.2139 3.65365 20.2048C4.10871 20.2048 4.50006 20.0774 4.764 19.7497C5.34648 19.0944 5.34648 18.1297 4.70029 17.5381C3.85388 16.6917 3.14398 14.8077 3.14398 13.2514C3.15308 7.64505 7.6946 3.11263 13.301 3.12173C17.26 3.12173 20.855 5.43345 22.5114 9.02844C22.9028 9.81115 23.8038 10.1934 24.5865 9.81115C25.3692 9.4198 25.7515 8.51877 25.3692 7.73606C23.194 3.03072 18.4796 0.00910125 13.2828 0C6.00177 0 0.0313503 5.97042 0.0313503 13.2514C0.0131478 15.7179 1.1144 18.4482 2.607 19.8134Z" fill="#00c4b6"></path><path d="M19.0438 8.50968C17.2872 6.82595 15.4761 6.04324 13.2645 6.04324C11.335 6.04324 9.48745 6.80775 8.13136 8.18204C6.76617 9.54723 6.05627 11.3675 6.05627 13.3151C6.05627 15.2628 7.03921 18.1206 11.517 20.2685L11.5534 20.2776C11.7446 20.3595 11.9448 20.3959 12.1541 20.3959H12.1723C12.2087 20.3959 12.2542 20.3959 12.2906 20.3868C12.3179 20.3868 12.3452 20.3777 12.3725 20.3777H12.3998C13.2372 20.2503 13.8196 19.4585 13.6922 18.6212V18.6121C13.6194 18.157 13.3464 17.7657 12.955 17.5199C12.8913 17.4744 12.8276 17.438 12.7639 17.4107C10.3612 16.2457 9.1325 14.8715 9.1325 13.2514C9.1689 10.967 11.0074 9.11947 13.2918 9.09216C14.657 9.09216 15.6945 9.61093 16.8595 10.7122C17.4692 11.322 18.4613 11.322 19.0711 10.7122C19.6717 10.1115 19.6808 9.13767 19.0802 8.53699C19.0529 8.52789 19.0529 8.51878 19.0438 8.50968Z" fill="#00c4b6"></path></svg>